<?xml version="1.0" encoding="UTF-8"?>
<svg xmlns="http://www.w3.org/2000/svg" xmlns:xlink="http://www.w3.org/1999/xlink" width="48px" height="48px" viewBox="0 0 48 48" version="1.1">
<g id="surface1">
<path style=" stroke:none;fill-rule:nonzero;fill:rgb(53.725493%,66.666669%,85.882354%);fill-opacity:1;" d="M 14.554688 24.964844 L 18.375 33.5625 L 19.921875 33.5625 L 14.929688 23.628906 C 14.523438 23.914062 14.328125 24.460938 14.554688 24.964844 Z M 14.554688 24.964844 "/>
<path style=" stroke:none;fill-rule:nonzero;fill:rgb(29.411766%,40.392157%,69.01961%);fill-opacity:1;" d="M 22.875 33.5625 L 16.445312 23.921875 C 16.246094 23.617188 15.90625 23.4375 15.542969 23.4375 C 15.414062 23.4375 15.289062 23.460938 15.175781 23.503906 L 20.976562 33.5625 Z M 22.875 33.5625 "/>
<path style=" stroke:none;fill-rule:nonzero;fill:rgb(38.431373%,52.941179%,77.254903%);fill-opacity:1;" d="M 15.175781 23.503906 C 15.085938 23.535156 15.003906 23.578125 14.929688 23.628906 L 19.921875 33.5625 L 20.976562 33.5625 Z M 15.175781 23.503906 "/>
<path style=" stroke:none;fill-rule:nonzero;fill:rgb(53.725493%,66.666669%,85.882354%);fill-opacity:1;" d="M 33.808594 24.964844 L 29.988281 33.5625 L 28.4375 33.5625 L 33.433594 23.628906 C 33.839844 23.914062 34.03125 24.460938 33.808594 24.964844 Z M 33.808594 24.964844 "/>
<path style=" stroke:none;fill-rule:nonzero;fill:rgb(29.411766%,40.392157%,69.01961%);fill-opacity:1;" d="M 25.488281 33.5625 L 31.914062 23.921875 C 32.117188 23.617188 32.453125 23.4375 32.816406 23.4375 C 32.949219 23.4375 33.070312 23.460938 33.183594 23.503906 L 27.386719 33.5625 Z M 25.488281 33.5625 "/>
<path style=" stroke:none;fill-rule:nonzero;fill:rgb(38.431373%,52.941179%,77.254903%);fill-opacity:1;" d="M 33.183594 23.503906 C 33.273438 23.535156 33.359375 23.578125 33.433594 23.628906 L 28.4375 33.5625 L 27.386719 33.5625 Z M 33.183594 23.503906 "/>
<path style=" stroke:none;fill-rule:nonzero;fill:rgb(90.980393%,21.960784%,23.137255%);fill-opacity:1;" d="M 35.445312 33.5625 L 27.3125 33.5625 C 27.96875 33.5625 28.5 34.09375 28.5 34.75 L 28.5 38 C 28.5 38.65625 27.96875 39.1875 27.3125 39.1875 L 35.445312 39.1875 C 36.582031 39.1875 37.5 38.269531 37.5 37.132812 L 37.5 35.617188 C 37.5 34.480469 36.582031 33.5625 35.445312 33.5625 Z M 35.445312 33.5625 "/>
<path style=" stroke:none;fill-rule:nonzero;fill:rgb(93.725491%,49.803922%,44.705883%);fill-opacity:1;" d="M 19.5 38 L 19.5 34.75 C 19.5 34.09375 20.03125 33.5625 20.6875 33.5625 L 12.554688 33.5625 C 11.417969 33.5625 10.5 34.480469 10.5 35.617188 L 10.5 37.132812 C 10.5 38.269531 11.417969 39.1875 12.554688 39.1875 L 20.6875 39.1875 C 20.03125 39.1875 19.5 38.65625 19.5 38 Z M 19.5 38 "/>
<path style=" stroke:none;fill-rule:nonzero;fill:rgb(91.37255%,34.901962%,27.843139%);fill-opacity:1;" d="M 28.5 38 L 28.5 34.75 C 28.5 34.09375 27.96875 33.5625 27.3125 33.5625 L 20.6875 33.5625 C 20.03125 33.5625 19.5 34.09375 19.5 34.75 L 19.5 38 C 19.5 38.65625 20.03125 39.1875 20.6875 39.1875 L 27.3125 39.1875 C 27.96875 39.1875 28.5 38.65625 28.5 38 Z M 28.5 38 "/>
<path style=" stroke:none;fill-rule:nonzero;fill:rgb(10.980392%,17.647059%,41.960785%);fill-opacity:1;" d="M 35.445312 39.75 L 12.554688 39.75 C 11.109375 39.75 9.9375 38.578125 9.9375 37.132812 L 9.9375 35.617188 C 9.9375 34.171875 11.109375 33 12.554688 33 L 35.445312 33 C 36.890625 33 38.0625 34.171875 38.0625 35.617188 L 38.0625 37.132812 C 38.0625 38.578125 36.890625 39.75 35.445312 39.75 Z M 12.554688 34.125 C 11.730469 34.125 11.0625 34.792969 11.0625 35.617188 L 11.0625 37.132812 C 11.0625 37.957031 11.730469 38.625 12.554688 38.625 L 35.445312 38.625 C 36.269531 38.625 36.9375 37.957031 36.9375 37.132812 L 36.9375 35.617188 C 36.9375 34.792969 36.269531 34.125 35.445312 34.125 Z M 12.554688 34.125 "/>
<path style=" stroke:none;fill-rule:nonzero;fill:rgb(10.980392%,17.647059%,41.960785%);fill-opacity:1;" d="M 22.875 34.125 L 18.375 34.125 C 18.152344 34.125 17.953125 33.992188 17.859375 33.789062 L 14.039062 25.191406 C 13.8125 24.679688 13.859375 24.09375 14.164062 23.625 C 14.46875 23.15625 14.984375 22.875 15.542969 22.875 C 16.097656 22.875 16.609375 23.148438 16.914062 23.609375 L 23.34375 33.25 C 23.457031 33.421875 23.46875 33.644531 23.371094 33.828125 C 23.273438 34.011719 23.082031 34.125 22.875 34.125 Z M 18.742188 33 L 21.824219 33 L 15.980469 24.234375 C 15.882812 24.085938 15.71875 24 15.542969 24 C 15.363281 24 15.203125 24.085938 15.105469 24.238281 C 15.007812 24.390625 14.992188 24.570312 15.066406 24.734375 Z M 18.742188 33 "/>
<path style=" stroke:none;fill-rule:nonzero;fill:rgb(10.980392%,17.647059%,41.960785%);fill-opacity:1;" d="M 30 34.125 L 25.5 34.125 C 25.292969 34.125 25.101562 34.011719 25.003906 33.828125 C 24.90625 33.644531 24.917969 33.421875 25.03125 33.25 L 31.460938 23.609375 C 31.765625 23.148438 32.277344 22.875 32.832031 22.875 C 33.390625 22.875 33.90625 23.15625 34.210938 23.625 C 34.515625 24.09375 34.5625 24.679688 34.335938 25.191406 L 30.515625 33.789062 C 30.425781 33.992188 30.222656 34.125 30 34.125 Z M 26.550781 33 L 29.632812 33 L 33.308594 24.734375 C 33.382812 24.570312 33.367188 24.390625 33.269531 24.238281 C 33.171875 24.085938 33.011719 24 32.832031 24 C 32.65625 24 32.492188 24.085938 32.394531 24.234375 Z M 26.550781 33 "/>
<path style=" stroke:none;fill-rule:nonzero;fill:rgb(92.941177%,89.411765%,61.56863%);fill-opacity:1;" d="M 24 8.8125 C 19.648438 8.8125 15.710938 10.574219 12.863281 13.425781 L 15.25 15.8125 C 16.171875 14.886719 17.246094 14.113281 18.421875 13.519531 L 18.375 13.425781 C 19.8125 10.574219 21.804688 8.8125 24 8.8125 Z M 24 8.8125 "/>
<path style=" stroke:none;fill-rule:nonzero;fill:rgb(82.745099%,72.941178%,16.470589%);fill-opacity:1;" d="M 35.136719 13.425781 C 32.289062 10.574219 28.351562 8.8125 24 8.8125 C 26.195312 8.8125 28.1875 10.574219 29.625 13.425781 L 29.578125 13.519531 C 30.753906 14.113281 31.828125 14.886719 32.75 15.8125 Z M 35.136719 13.425781 "/>
<path style=" stroke:none;fill-rule:nonzero;fill:rgb(93.333334%,87.843138%,27.058825%);fill-opacity:1;" d="M 24 8.8125 C 21.804688 8.8125 19.8125 10.574219 18.375 13.425781 L 18.421875 13.519531 C 20.097656 12.667969 21.992188 12.1875 24 12.1875 C 26.007812 12.1875 27.902344 12.667969 29.578125 13.519531 L 29.625 13.425781 C 28.1875 10.574219 26.195312 8.8125 24 8.8125 Z M 24 8.8125 "/>
<path style=" stroke:none;fill-rule:nonzero;fill:rgb(92.941177%,89.411765%,61.56863%);fill-opacity:1;" d="M 24 15.5625 C 21.515625 15.5625 19.265625 16.570312 17.636719 18.199219 L 20.023438 20.585938 C 20.625 19.984375 21.363281 19.519531 22.1875 19.238281 L 21.832031 18.199219 C 22.386719 16.570312 23.152344 15.5625 24 15.5625 Z M 24 15.5625 "/>
<path style=" stroke:none;fill-rule:nonzero;fill:rgb(82.745099%,72.941178%,16.470589%);fill-opacity:1;" d="M 30.363281 18.199219 C 28.734375 16.570312 26.484375 15.5625 24 15.5625 C 24.847656 15.5625 25.613281 16.570312 26.167969 18.199219 L 25.8125 19.238281 C 26.636719 19.519531 27.375 19.984375 27.976562 20.585938 Z M 30.363281 18.199219 "/>
<path style=" stroke:none;fill-rule:nonzero;fill:rgb(93.333334%,87.843138%,27.058825%);fill-opacity:1;" d="M 24 15.5625 C 23.152344 15.5625 22.386719 16.570312 21.832031 18.199219 L 22.1875 19.238281 C 22.753906 19.042969 23.367188 18.9375 24 18.9375 C 24.632812 18.9375 25.246094 19.042969 25.8125 19.238281 L 26.167969 18.199219 C 25.613281 16.570312 24.847656 15.5625 24 15.5625 Z M 24 15.5625 "/>
<path style=" stroke:none;fill-rule:nonzero;fill:rgb(92.941177%,89.411765%,61.56863%);fill-opacity:1;" d="M 23.300781 24.5625 C 23.300781 23.320312 23.613281 22.3125 24 22.3125 C 22.757812 22.3125 21.75 23.320312 21.75 24.5625 C 21.75 25.804688 22.757812 26.8125 24 26.8125 C 23.613281 26.8125 23.300781 25.804688 23.300781 24.5625 Z M 23.300781 24.5625 "/>
<path style=" stroke:none;fill-rule:nonzero;fill:rgb(82.745099%,72.941178%,16.470589%);fill-opacity:1;" d="M 24 22.3125 C 24.386719 22.3125 24.699219 23.320312 24.699219 24.5625 C 24.699219 25.804688 24.386719 26.8125 24 26.8125 C 25.242188 26.8125 26.25 25.804688 26.25 24.5625 C 26.25 23.320312 25.242188 22.3125 24 22.3125 Z M 24 22.3125 "/>
<path style=" stroke:none;fill-rule:nonzero;fill:rgb(93.333334%,87.843138%,27.058825%);fill-opacity:1;" d="M 24.699219 24.5625 C 24.699219 23.320312 24.386719 22.3125 24 22.3125 C 23.613281 22.3125 23.300781 23.320312 23.300781 24.5625 C 23.300781 25.804688 23.613281 26.8125 24 26.8125 C 24.386719 26.8125 24.699219 25.804688 24.699219 24.5625 Z M 24.699219 24.5625 "/>
<path style=" stroke:none;fill-rule:nonzero;fill:rgb(10.980392%,17.647059%,41.960785%);fill-opacity:1;" d="M 32.75 16.375 C 32.605469 16.375 32.460938 16.320312 32.351562 16.210938 C 30.121094 13.980469 27.152344 12.75 24 12.75 C 20.847656 12.75 17.878906 13.980469 15.648438 16.210938 C 15.425781 16.429688 15.070312 16.429688 14.851562 16.210938 L 12.464844 13.824219 C 12.246094 13.601562 12.246094 13.246094 12.464844 13.027344 C 15.546875 9.945312 19.640625 8.25 24 8.25 C 28.359375 8.25 32.453125 9.945312 35.535156 13.027344 C 35.640625 13.132812 35.699219 13.277344 35.699219 13.425781 C 35.699219 13.574219 35.640625 13.71875 35.535156 13.824219 L 33.148438 16.210938 C 33.039062 16.320312 32.894531 16.375 32.75 16.375 Z M 24 11.625 C 27.265625 11.625 30.347656 12.828125 32.742188 15.023438 L 34.335938 13.433594 C 31.519531 10.8125 27.871094 9.375 24 9.375 C 20.128906 9.375 16.484375 10.8125 13.664062 13.433594 L 15.257812 15.023438 C 17.652344 12.828125 20.734375 11.625 24 11.625 Z M 24 11.625 "/>
<path style=" stroke:none;fill-rule:nonzero;fill:rgb(10.980392%,17.647059%,41.960785%);fill-opacity:1;" d="M 20.023438 21.148438 C 19.878906 21.148438 19.734375 21.09375 19.625 20.984375 L 17.238281 18.597656 C 17.019531 18.375 17.019531 18.019531 17.238281 17.800781 C 19.042969 15.996094 21.445312 15 24 15 C 26.554688 15 28.957031 15.996094 30.761719 17.800781 C 30.980469 18.019531 30.980469 18.375 30.761719 18.597656 L 28.375 20.984375 C 28.269531 21.089844 28.125 21.148438 27.976562 21.148438 C 27.828125 21.148438 27.683594 21.089844 27.578125 20.984375 C 26.621094 20.027344 25.351562 19.5 24 19.5 C 22.648438 19.5 21.378906 20.027344 20.421875 20.984375 C 20.3125 21.09375 20.167969 21.148438 20.023438 21.148438 Z M 18.445312 18.210938 L 20.039062 19.808594 C 21.152344 18.878906 22.535156 18.375 24 18.375 C 25.464844 18.375 26.847656 18.878906 27.960938 19.808594 L 29.554688 18.210938 C 28.019531 16.863281 26.066406 16.125 24 16.125 C 21.933594 16.125 19.980469 16.863281 18.445312 18.210938 Z M 18.445312 18.210938 "/>
<path style=" stroke:none;fill-rule:nonzero;fill:rgb(10.980392%,17.647059%,41.960785%);fill-opacity:1;" d="M 24 27.375 C 22.449219 27.375 21.1875 26.113281 21.1875 24.5625 C 21.1875 23.011719 22.449219 21.75 24 21.75 C 25.550781 21.75 26.8125 23.011719 26.8125 24.5625 C 26.8125 26.113281 25.550781 27.375 24 27.375 Z M 24 22.875 C 23.070312 22.875 22.3125 23.632812 22.3125 24.5625 C 22.3125 25.492188 23.070312 26.25 24 26.25 C 24.929688 26.25 25.6875 25.492188 25.6875 24.5625 C 25.6875 23.632812 24.929688 22.875 24 22.875 Z M 24 22.875 "/>
<path style=" stroke:none;fill-rule:nonzero;fill:rgb(10.980392%,17.647059%,41.960785%);fill-opacity:1;" d="M 14.269531 36.375 C 14.269531 35.957031 13.929688 35.617188 13.507812 35.617188 C 13.089844 35.617188 12.75 35.957031 12.75 36.375 C 12.75 36.792969 13.089844 37.132812 13.507812 37.132812 C 13.929688 37.132812 14.269531 36.792969 14.269531 36.375 Z M 14.269531 36.375 "/>
<path style=" stroke:none;fill-rule:nonzero;fill:rgb(10.980392%,17.647059%,41.960785%);fill-opacity:1;" d="M 16.519531 36.375 C 16.519531 35.957031 16.179688 35.617188 15.757812 35.617188 C 15.339844 35.617188 15 35.957031 15 36.375 C 15 36.792969 15.339844 37.132812 15.757812 37.132812 C 16.179688 37.132812 16.519531 36.792969 16.519531 36.375 Z M 16.519531 36.375 "/>
<path style=" stroke:none;fill-rule:nonzero;fill:rgb(10.980392%,17.647059%,41.960785%);fill-opacity:1;" d="M 18.769531 36.375 C 18.769531 35.957031 18.429688 35.617188 18.007812 35.617188 C 17.589844 35.617188 17.25 35.957031 17.25 36.375 C 17.25 36.792969 17.589844 37.132812 18.007812 37.132812 C 18.429688 37.132812 18.769531 36.792969 18.769531 36.375 Z M 18.769531 36.375 "/>
<path style=" stroke:none;fill-rule:nonzero;fill:rgb(10.980392%,17.647059%,41.960785%);fill-opacity:1;" d="M 34.125 36.9375 L 31.875 36.9375 C 31.5625 36.9375 31.3125 36.6875 31.3125 36.375 C 31.3125 36.0625 31.5625 35.8125 31.875 35.8125 L 34.125 35.8125 C 34.4375 35.8125 34.6875 36.0625 34.6875 36.375 C 34.6875 36.6875 34.4375 36.9375 34.125 36.9375 Z M 34.125 36.9375 "/>
</g>
</svg>
